<svg xmlns="http://www.w3.org/2000/svg" width="1806" height="1066" viewBox="0 0 1806 1066" version="1.1"><path d="M 971 657.032 C 950.787 659.423, 932.494 668.537, 916.913 683.980 C 908.018 692.797, 902.221 701.077, 896.938 712.512 C 892.020 723.158, 890.280 729.355, 889.011 740.750 C 887.138 757.563, 890.281 773.284, 898.707 789.254 C 901.363 794.289, 913.156 809.315, 937.356 838.500 C 956.511 861.600, 973.498 881.737, 975.107 883.250 C 977.358 885.366, 979.018 886, 982.313 886 C 985.957 886, 987.127 885.442, 990.174 882.250 C 992.142 880.188, 1009.403 859.600, 1028.531 836.500 C 1059.263 799.387, 1063.806 793.453, 1067.583 785.500 C 1072.715 774.692, 1075 763.709, 1075 749.847 C 1075 711.891, 1050.752 676.875, 1014.870 663.015 C 1006.853 659.918, 987.162 655.908, 981.075 656.131 C 979.109 656.204, 974.575 656.609, 971 657.032 M 967.393 662.021 C 933.176 668.195, 905.505 693.512, 895.824 727.500 C 893.923 734.176, 893.547 737.900, 893.554 750 C 893.561 763.290, 893.795 765.168, 896.358 772.500 C 897.896 776.900, 900.704 783.425, 902.599 787 C 906.765 794.858, 977.093 880.051, 980.543 881.418 C 982.178 882.067, 983.463 881.919, 984.908 880.918 C 986.034 880.138, 1003.183 859.925, 1023.016 836 C 1062.060 788.901, 1064.817 784.855, 1068.991 768.536 C 1072.759 753.803, 1071.326 734.284, 1065.366 719.155 C 1054.697 692.075, 1032.541 671.874, 1004.826 663.956 C 996.458 661.566, 975.826 660.499, 967.393 662.021 M 973 673.675 C 966.874 674.478, 960 676.213, 960 676.957 C 960 677.404, 956.934 679.623, 953.187 681.887 C 946.849 685.716, 942 690.516, 942 692.960 C 942 694.588, 942.929 694.224, 947 691 C 949.083 689.350, 951.031 688, 951.329 688 C 951.626 688, 953.137 687.486, 954.685 686.859 C 956.233 686.231, 958.265 685.633, 959.200 685.529 C 960.723 685.361, 963.938 683.464, 972.150 677.888 C 973.607 676.898, 975.974 675.794, 977.409 675.433 C 983.255 673.966, 980.169 672.735, 973 673.675 M 1007.250 678.572 C 1008.763 679.393, 1010 680.526, 1010 681.091 C 1010 681.656, 1009.438 681.789, 1008.750 681.387 C 1008.063 680.985, 1008.349 681.624, 1009.386 682.807 C 1011.234 684.915, 1011.234 684.970, 1009.386 685.552 C 1008.349 685.879, 1006.647 686.608, 1005.605 687.172 C 1004.048 688.015, 1003.821 687.909, 1004.333 686.576 C 1004.846 685.239, 1004.617 685.135, 1003.032 685.983 C 1001.594 686.752, 999.724 686.494, 995.628 684.962 C 990.550 683.062, 989.880 683.023, 986.502 684.435 C 984.497 685.273, 983.101 686.355, 983.401 686.839 C 983.700 687.324, 982.159 689.325, 979.975 691.285 C 975.729 695.097, 975.417 698.338, 979.348 697.792 C 980.803 697.590, 981.552 698.117, 981.779 699.500 C 982.028 701.016, 981.879 701.166, 981.166 700.122 C 979.954 698.350, 978 699.545, 978 702.059 C 978 703.127, 977.380 704, 976.622 704 C 975.865 704, 974.679 704.682, 973.987 705.516 C 972.894 706.833, 972.532 706.669, 971.223 704.266 C 970.395 702.745, 969.774 700.516, 969.842 699.313 C 969.934 697.713, 969.435 697.167, 967.984 697.276 C 965.759 697.444, 965.352 699.952, 967.242 701.842 C 968.097 702.697, 968.152 703.303, 967.419 703.792 C 966.833 704.181, 966.069 705.272, 965.721 706.216 C 965.183 707.678, 965.550 707.840, 968.200 707.310 C 970.443 706.861, 971.109 707.015, 970.586 707.860 C 970.188 708.505, 969.443 708.774, 968.931 708.457 C 968.419 708.141, 968 708.385, 968 709 C 968 709.615, 967.581 709.859, 967.069 709.543 C 966.557 709.226, 965.856 709.425, 965.510 709.984 C 965.165 710.543, 965.310 711, 965.834 711 C 967.115 711, 968.065 713.666, 967.402 715.396 C 967.022 716.384, 965.762 716.644, 963.082 716.284 C 959.350 715.784, 959.289 715.830, 958.661 719.638 C 958.173 722.590, 958.412 723.789, 959.671 724.727 C 961.164 725.839, 961.070 726.203, 958.659 728.613 C 957.197 730.076, 956 731.838, 956 732.529 C 956 733.221, 955.373 734.027, 954.606 734.321 C 953.839 734.615, 952.007 736.436, 950.534 738.367 C 948.362 741.214, 947.804 743.120, 947.582 748.452 C 947.352 753.943, 947.673 755.524, 949.527 758.037 C 954.380 764.614, 955.807 765.278, 963.701 764.627 C 968.013 764.272, 971.147 764.428, 971.510 765.017 C 971.845 765.558, 973.216 766, 974.559 766 C 977.248 766, 977.465 766.647, 976.038 770.399 C 975.387 772.112, 975.424 773.144, 976.152 773.594 C 976.743 773.959, 978.082 776.191, 979.126 778.553 C 980.691 782.090, 980.819 783.303, 979.853 785.423 C 978.620 788.129, 979.310 791.666, 982.791 800.500 C 984.959 806.001, 985.344 806.303, 989.113 805.475 C 992.959 804.630, 1001 796.888, 1001 794.029 C 1001 792.987, 1001.841 791.868, 1002.868 791.542 C 1006.183 790.490, 1008.064 787.389, 1008.424 782.381 C 1008.617 779.696, 1008.826 777.135, 1008.888 776.688 C 1008.949 776.242, 1012.150 772.843, 1016 769.135 C 1023.912 761.516, 1025.098 758.214, 1019.750 758.692 C 1016.951 758.943, 1015.979 758.350, 1012.750 754.423 C 1010.688 751.915, 1009 748.976, 1009 747.892 C 1009 746.808, 1008.100 744.156, 1007 742 C 1004.752 737.593, 1004.621 737, 1005.895 737 C 1006.958 737, 1015 752.434, 1015 754.473 C 1015 757.274, 1017.275 757.160, 1023.399 754.051 C 1027.031 752.208, 1030.333 749.705, 1031.305 748.061 C 1032.897 745.366, 1032.876 745.111, 1030.848 742.534 C 1029.412 740.708, 1028.488 740.211, 1027.999 741.001 C 1027.602 741.644, 1026.972 742.147, 1026.600 742.117 C 1025.367 742.019, 1020.740 735.927, 1021.399 735.268 C 1021.755 734.912, 1022.736 735.606, 1023.580 736.810 C 1024.428 738.022, 1026.178 739, 1027.498 739 C 1028.809 739, 1030.160 739.450, 1030.500 740 C 1030.840 740.550, 1032.655 741, 1034.533 741 C 1037.293 741, 1038.237 741.558, 1039.453 743.910 C 1040.281 745.510, 1041.405 746.972, 1041.952 747.160 C 1042.498 747.347, 1043.247 750.763, 1043.616 754.750 C 1043.985 758.737, 1044.673 762, 1045.144 762 C 1045.615 762, 1046.059 762.788, 1046.131 763.750 C 1046.203 764.712, 1046.600 763.025, 1047.013 760 C 1047.425 756.975, 1048.765 752.250, 1049.989 749.500 L 1052.214 744.500 1053.553 748.925 C 1054.907 753.397, 1054.467 766.406, 1052.993 765.496 C 1052.595 765.250, 1051.983 767.400, 1051.632 770.274 C 1051.281 773.148, 1050.745 776.625, 1050.442 778 C 1050.053 779.761, 1050.356 779.491, 1051.466 777.085 C 1053.486 772.709, 1056.143 760.040, 1055.320 758.709 C 1054.974 758.149, 1055.176 757.991, 1055.769 758.357 C 1057.393 759.361, 1057.732 743.900, 1056.273 735.355 C 1052.129 711.079, 1034.176 688.433, 1011.900 679.381 C 1005.319 676.707, 1003.101 676.321, 1007.250 678.572 M 947 682.014 C 942.875 684.192, 938.753 686.880, 937.840 687.987 C 936.927 689.094, 935.869 690, 935.489 690 C 934.089 690, 924.758 699.686, 920.478 705.583 C 915.894 711.898, 911.018 721.395, 911.022 724 C 911.023 724.825, 912.481 722.894, 914.262 719.709 C 916.043 716.523, 918.585 713.373, 919.911 712.709 C 921.237 712.044, 922.433 710.721, 922.569 709.770 C 922.859 707.749, 925.201 705.195, 927.139 704.786 C 928.851 704.424, 930.927 701.914, 930.968 700.154 C 930.986 699.414, 931.887 697.563, 932.970 696.041 C 934.054 694.520, 934.665 692.998, 934.327 692.661 C 933.990 692.323, 934.566 691.722, 935.607 691.324 C 936.648 690.927, 939.300 689.313, 941.500 687.738 C 943.700 686.162, 947.638 683.485, 950.250 681.787 C 954.316 679.146, 955.785 677.917, 954.750 678.026 C 954.612 678.041, 951.125 679.835, 947 682.014 M 988.696 691.220 C 987.704 692.258, 986.986 693.871, 987.100 694.804 C 987.372 697.029, 986.013 700.170, 984.062 701.824 C 982.707 702.973, 982.831 703.074, 985 702.588 C 986.375 702.280, 988.063 702.021, 988.750 702.014 C 989.438 702.006, 990 700.905, 990 699.566 C 990 697.679, 990.617 697.039, 992.750 696.716 L 995.500 696.300 992.719 696.150 C 989.522 695.978, 988.199 693.671, 990.031 691.463 C 991.887 689.227, 990.792 689.028, 988.696 691.220 M 974.679 716.703 C 973.677 716.962, 971.303 718.683, 969.404 720.527 C 967.505 722.372, 965.003 724.182, 963.843 724.550 C 962.251 725.055, 962.060 725.419, 963.064 726.040 C 963.795 726.491, 965.221 726.417, 966.234 725.875 C 967.780 725.047, 974.286 724.539, 978.656 724.903 C 979.294 724.957, 979.586 725.868, 979.307 726.933 C 978.908 728.458, 979.877 729.411, 983.901 731.450 C 988.225 733.641, 989 733.786, 989 732.403 C 989 731.103, 989.658 730.899, 992.250 731.394 C 1002.330 733.322, 1004.285 733.331, 1005.656 731.456 C 1006.395 730.445, 1007 728.832, 1007 727.873 C 1007 726.415, 1006.277 726.195, 1002.611 726.539 C 998.525 726.922, 998.137 726.745, 996.990 723.975 C 995.719 720.906, 994.576 720.259, 993.500 722 C 993.160 722.550, 993.455 723, 994.155 723 C 995.030 723, 994.907 723.521, 993.764 724.664 C 992.395 726.033, 991.828 726.102, 990.561 725.051 C 989.715 724.348, 989.249 723.405, 989.527 722.956 C 990.655 721.130, 988.141 721.186, 986.479 723.024 C 984.586 725.115, 982 725.679, 982 724 C 982 723.450, 982.788 722.998, 983.750 722.995 C 985.027 722.992, 984.471 722.045, 981.694 719.495 C 979.601 717.573, 977.576 716.052, 977.194 716.116 C 976.812 716.180, 975.680 716.444, 974.679 716.703 M 908.307 754.140 C 906.742 756.040, 910.066 771.215, 913.570 778.165 C 917.638 786.236, 927.889 800.002, 929.818 799.985 C 932.516 799.960, 934.121 798.479, 933.422 796.657 C 933.067 795.732, 933.330 794.307, 934.008 793.491 C 934.952 792.352, 934.980 790.979, 934.127 787.591 C 933.516 785.162, 933.297 781.766, 933.641 780.044 C 934.130 777.601, 933.760 776.374, 931.959 774.457 C 930.690 773.106, 929.091 772, 928.407 772 C 926.245 772, 921.018 768.572, 920.437 766.773 C 920.130 765.822, 918.332 763.192, 916.440 760.928 C 914.548 758.663, 913 756.403, 913 755.905 C 913 755.407, 912.362 755, 911.583 755 C 910.804 755, 910 754.501, 909.797 753.890 C 909.549 753.148, 909.056 753.231, 908.307 754.140 M 1013.382 787.848 C 1010.708 790.122, 1007 795.702, 1007 797.450 C 1007 797.753, 1007.900 798, 1009 798 C 1010.100 798, 1011.001 797.663, 1011.001 797.250 C 1011.002 796.837, 1012.140 795.178, 1013.529 793.562 C 1015.871 790.839, 1017.731 786.379, 1016.870 785.551 C 1016.667 785.355, 1015.097 786.389, 1013.382 787.848" stroke="none" fill="#112aa9" fill-rule="evenodd"/><path d="M 141.279 304.010 C 122.887 305.533, 107.231 309.472, 93.500 316.031 C 83.258 320.924, 77.273 325.231, 68.207 334.234 C 62.496 339.904, 60.977 342.016, 61.207 343.963 C 61.601 347.310, 103.085 379, 107.071 379 C 108.904 379, 110.410 377.975, 112.129 375.558 C 117.217 368.408, 126.449 362.817, 138 359.893 C 141.496 359.007, 148.965 358.502, 158.500 358.505 C 171.441 358.509, 174.530 358.832, 181 360.859 C 190.574 363.859, 195.674 366.875, 201.248 372.834 C 209.373 381.520, 214.655 396.198, 216.961 416.500 C 217.611 422.219, 217.987 477.845, 217.992 569.083 L 218 712.665 247.750 737.680 C 264.113 751.439, 278.976 763.940, 280.780 765.462 L 284.059 768.228 283.744 594.364 C 283.398 403.725, 283.739 414.888, 277.495 389.901 C 267.876 351.406, 247.504 325.665, 216.861 313.288 C 197.812 305.594, 167.336 301.853, 141.279 304.010 M 762.462 311.250 C 762.201 311.938, 762.103 414.875, 762.244 540 L 762.500 767.500 795.250 767.764 L 828 768.027 828 710.710 L 828 653.392 831.250 650.253 C 838.076 643.658, 849.328 641.220, 859.236 644.189 C 864.739 645.838, 872.295 652.915, 874.749 658.721 C 875.860 661.349, 880.534 675.758, 885.135 690.739 C 889.736 705.721, 893.755 717.983, 894.066 717.989 C 894.377 717.995, 895.667 715.503, 896.932 712.450 C 903.968 695.476, 918.824 679.426, 938.595 667.441 C 940.199 666.469, 939.596 664.168, 931.256 639.441 C 919.106 603.415, 918.513 600.415, 918.506 575 C 918.499 551.772, 920.116 541.727, 926.714 524 C 932.186 509.298, 935.853 502.709, 956.208 471 L 975.145 441.500 942.372 441.236 C 916.981 441.032, 909.329 441.257, 908.401 442.236 C 907.741 442.931, 899.458 454.975, 889.994 469 C 880.529 483.025, 871.624 495.739, 870.203 497.253 C 861.309 506.733, 843.112 506.039, 834.558 495.893 C 828.155 488.299, 828.527 494.065, 828.219 397.750 L 827.937 310 795.437 310 C 770.357 310, 762.829 310.285, 762.462 311.250 M 1089 316.050 C 1044.345 321.604, 1018.994 338.563, 1001.991 374.257 C 993.411 392.269, 988.970 411.878, 986.947 440.680 C 985.691 458.564, 986.029 652.412, 987.320 655.083 C 987.842 656.162, 991.179 657.209, 997.793 658.368 C 1041.962 666.107, 1075 705.241, 1075 749.821 C 1075 755.269, 1074.548 762.111, 1073.995 765.025 C 1073.443 767.939, 1073.183 770.516, 1073.418 770.751 C 1074.565 771.899, 1090.001 772.155, 1093.257 771.080 C 1107.036 766.533, 1113.998 752.018, 1109.429 737.363 C 1108.018 732.837, 1106.334 730.226, 1102.044 725.913 C 1097.312 721.156, 1095.275 719.923, 1088.339 717.613 C 1078.844 714.451, 1072.409 710.462, 1067.429 704.652 C 1059.377 695.258, 1053.753 677.614, 1052.024 656.322 C 1050.691 639.903, 1050.687 446.662, 1052.019 430.577 C 1055.700 386.145, 1071.959 369.035, 1110.500 369.035 C 1132.746 369.035, 1146.137 374.313, 1156.743 387.261 C 1157.977 388.768, 1159.777 389.995, 1160.743 389.989 C 1161.710 389.983, 1172.287 382.538, 1184.250 373.445 C 1200.087 361.406, 1206 356.356, 1206 354.869 C 1206 352.241, 1195.316 341.071, 1187.344 335.365 C 1175.552 326.924, 1159.629 320.711, 1141.500 317.475 C 1130.769 315.560, 1099.720 314.717, 1089 316.050 M 467.363 437.092 C 460.245 438.282, 450.050 442.120, 443.564 446.050 C 432.744 452.608, 417.940 467.196, 412.155 477 L 409.500 481.500 409.229 461.250 L 408.959 441 375.979 441 L 343 441 343 604.500 L 343 768 376 768 L 409 768 409.012 653.750 C 409.022 560.164, 409.272 538.569, 410.395 534.350 C 415.998 513.306, 434.782 501.458, 459.528 503.360 C 466.628 503.906, 483.015 507.417, 488.250 509.513 C 489.897 510.173, 490 508.078, 490 473.746 L 490 437.279 484.750 436.648 C 478.284 435.871, 474.016 435.980, 467.363 437.092 M 592.500 437.137 C 565.236 440.581, 544.350 452.637, 529.433 473.542 C 518.401 489.001, 511 513.105, 511 533.572 L 511 540 544 540 L 577 540 577.035 533.250 C 577.108 519.148, 581.371 503.638, 587.076 496.721 C 591.779 491.019, 597.061 488.734, 606.764 488.201 C 616.978 487.641, 622.591 489.102, 627.998 493.730 C 632.840 497.874, 636.074 503.929, 638.558 513.500 C 640.020 519.131, 640.387 524.588, 640.437 541.407 L 640.500 562.314 618.500 571.106 C 576.652 587.831, 547.108 605.797, 534.936 621.923 C 529.148 629.590, 520.107 647.257, 516.473 658 C 508.550 681.419, 509.127 710.092, 517.911 729.464 C 524.862 744.793, 538.566 760.200, 550.460 766.055 C 559.260 770.387, 566.238 771.975, 576.540 771.988 C 603.062 772.023, 620.148 759.573, 637.560 727.525 C 639.644 723.688, 641.467 720.988, 641.610 721.525 C 641.754 722.061, 643.498 731.950, 645.487 743.500 C 647.476 755.050, 649.335 765.288, 649.619 766.250 C 650.096 767.870, 652.534 768, 682.401 768 C 700.147 768, 714.899 767.768, 715.183 767.484 C 715.467 767.200, 715.137 764.803, 714.451 762.156 C 712.798 755.784, 710.336 740.880, 708.892 728.500 C 708.130 721.972, 707.477 683.608, 707.010 618 C 706.234 508.956, 706.531 514.517, 700.555 497.096 C 692.911 474.816, 677.107 456.622, 656.297 446.142 C 639.742 437.806, 614.930 434.304, 592.500 437.137 M 1220.168 462.154 C 1210.925 463.477, 1196.451 468.395, 1189.051 472.726 C 1177.058 479.745, 1164.087 493.745, 1157.758 506.500 C 1152.181 517.740, 1148.425 532.707, 1147.338 548.016 L 1146.701 557 1177.350 557 C 1205.867 557, 1208.001 556.878, 1208.017 555.250 C 1208.027 554.288, 1208.464 549.427, 1208.989 544.448 C 1211.614 519.540, 1220.087 509.034, 1237.572 509.010 C 1247.290 508.996, 1253.094 511.164, 1257.871 516.590 C 1264.800 524.462, 1268 539.602, 1268 564.510 L 1268 577.572 1249.250 584.950 C 1211.215 599.916, 1181.835 617.376, 1170.485 631.758 C 1164.637 639.168, 1155.848 656.325, 1152.110 667.625 C 1146.346 685.053, 1145.491 707.736, 1150.042 722.500 C 1156.757 744.286, 1172.018 762.217, 1189.660 769.051 C 1196.726 771.789, 1211.884 772.789, 1220.186 771.065 C 1228.212 769.399, 1239.249 763.783, 1244.916 758.481 C 1250.526 753.234, 1258.049 742.720, 1263.873 731.988 C 1268.525 723.414, 1267.645 721.798, 1272.044 747 C 1273.724 756.625, 1275.331 765.288, 1275.616 766.250 C 1276.095 767.867, 1278.453 768, 1306.674 768 C 1333.465 768, 1337.143 767.815, 1336.636 766.494 C 1335.732 764.137, 1332.127 744.401, 1330.885 735 C 1330.168 729.578, 1329.514 692.103, 1329.079 631.500 L 1328.397 536.500 1325.695 526.509 C 1316.015 490.716, 1291.731 468.182, 1256.719 462.503 C 1246.687 460.876, 1230.191 460.718, 1220.168 462.154 M 1496 461.687 C 1489.897 462.698, 1479.967 466.449, 1473.846 470.055 C 1464.879 475.338, 1452.121 487.540, 1446.008 496.680 L 1441 504.168 1441 484.584 L 1441 465 1410.500 465 L 1380 465 1380 616.500 L 1380 768 1410.474 768 L 1440.948 768 1441.224 661.250 L 1441.500 554.500 1443.709 548.651 C 1447.843 537.707, 1457.201 528.533, 1467.374 525.451 C 1479.004 521.928, 1494.608 522.677, 1509.749 527.485 L 1517 529.788 1517 496.025 L 1517 462.262 1513.250 461.642 C 1509.247 460.980, 1500.120 461.004, 1496 461.687 M 1610.500 462.041 C 1590.860 465.097, 1573.492 474.396, 1562.476 487.750 C 1549.863 503.041, 1541.438 528.756, 1537.820 563 C 1535.878 581.389, 1536.193 651.002, 1538.303 669.570 C 1541.302 695.962, 1547.111 717.833, 1555.254 733.388 C 1561.670 745.645, 1573.467 757.102, 1586.105 763.349 C 1598.823 769.635, 1610.040 771.969, 1627.619 771.987 C 1685.504 772.045, 1714.712 740.512, 1717.686 674.750 L 1718.307 661 1687.654 661 L 1657 661 1656.980 671.750 C 1656.930 699.254, 1651.059 715.111, 1639.239 719.671 C 1632.447 722.292, 1621.753 722.102, 1616.376 719.264 C 1601.670 711.503, 1596.117 686.512, 1597.730 635.338 L 1598.308 617 1658.154 617 L 1718 617 1718 599.054 C 1718 559.942, 1712.236 523.371, 1703.254 505.500 C 1698.900 496.837, 1691.010 486.252, 1683.925 479.568 C 1671.102 467.472, 1655.542 462.159, 1631 461.497 C 1623.025 461.283, 1613.800 461.527, 1610.500 462.041 M 1617 513.594 C 1604.247 519.118, 1598.019 538.023, 1598.006 571.250 L 1598 586 1627.500 586 L 1657 586 1656.965 579.250 C 1656.893 565.524, 1655.052 545.901, 1653.041 537.434 C 1649.762 523.631, 1645.241 516.928, 1636.703 513.216 C 1632.840 511.536, 1621.237 511.759, 1617 513.594 M 625.885 614.815 C 608.843 625.686, 598.572 633.535, 591.766 640.886 C 576.628 657.236, 572.522 683.234, 582.012 702.636 C 586.529 711.871, 593.177 716.242, 604.683 717.544 C 615.704 718.790, 625.171 713.801, 635.465 701.321 L 641 694.611 641 650.305 C 641 625.937, 640.663 606.029, 640.250 606.065 C 639.837 606.101, 633.373 610.039, 625.885 614.815 M 1252.358 627.336 C 1235.127 638.502, 1228.432 643.652, 1221.990 650.702 C 1211.940 661.698, 1206.919 677.694, 1208.842 692.591 C 1211.163 710.571, 1218.877 719.588, 1233.608 721.542 C 1243.457 722.849, 1253.748 717.473, 1262.750 706.318 L 1268 699.813 1268 658.906 C 1268 636.408, 1267.662 618.039, 1267.250 618.086 C 1266.838 618.133, 1260.136 622.296, 1252.358 627.336 M 967.393 662.021 C 933.176 668.195, 905.505 693.512, 895.824 727.500 C 893.923 734.176, 893.547 737.900, 893.554 750 C 893.561 763.290, 893.795 765.168, 896.358 772.500 C 897.896 776.900, 900.704 783.425, 902.599 787 C 906.765 794.858, 977.093 880.051, 980.543 881.418 C 982.178 882.067, 983.463 881.919, 984.908 880.918 C 986.034 880.138, 1003.183 859.925, 1023.016 836 C 1062.060 788.901, 1064.817 784.855, 1068.991 768.536 C 1072.759 753.803, 1071.326 734.284, 1065.366 719.155 C 1054.697 692.075, 1032.541 671.874, 1004.826 663.956 C 996.458 661.566, 975.826 660.499, 967.393 662.021 M 973 673.675 C 966.874 674.478, 960 676.213, 960 676.957 C 960 677.404, 956.934 679.623, 953.187 681.887 C 946.849 685.716, 942 690.516, 942 692.960 C 942 694.588, 942.929 694.224, 947 691 C 949.083 689.350, 951.031 688, 951.329 688 C 951.626 688, 953.137 687.486, 954.685 686.859 C 956.233 686.231, 958.265 685.633, 959.200 685.529 C 960.723 685.361, 963.938 683.464, 972.150 677.888 C 973.607 676.898, 975.974 675.794, 977.409 675.433 C 983.255 673.966, 980.169 672.735, 973 673.675 M 1007.250 678.572 C 1008.763 679.393, 1010 680.526, 1010 681.091 C 1010 681.656, 1009.438 681.789, 1008.750 681.387 C 1008.063 680.985, 1008.349 681.624, 1009.386 682.807 C 1011.234 684.915, 1011.234 684.970, 1009.386 685.552 C 1008.349 685.879, 1006.647 686.608, 1005.605 687.172 C 1004.048 688.015, 1003.821 687.909, 1004.333 686.576 C 1004.846 685.239, 1004.617 685.135, 1003.032 685.983 C 1001.594 686.752, 999.724 686.494, 995.628 684.962 C 990.550 683.062, 989.880 683.023, 986.502 684.435 C 984.497 685.273, 983.101 686.355, 983.401 686.839 C 983.700 687.324, 982.159 689.325, 979.975 691.285 C 975.729 695.097, 975.417 698.338, 979.348 697.792 C 980.803 697.590, 981.552 698.117, 981.779 699.500 C 982.028 701.016, 981.879 701.166, 981.166 700.122 C 979.954 698.350, 978 699.545, 978 702.059 C 978 703.127, 977.380 704, 976.622 704 C 975.865 704, 974.679 704.682, 973.987 705.516 C 972.894 706.833, 972.532 706.669, 971.223 704.266 C 970.395 702.745, 969.774 700.516, 969.842 699.313 C 969.934 697.713, 969.435 697.167, 967.984 697.276 C 965.759 697.444, 965.352 699.952, 967.242 701.842 C 968.097 702.697, 968.152 703.303, 967.419 703.792 C 966.833 704.181, 966.069 705.272, 965.721 706.216 C 965.183 707.678, 965.550 707.840, 968.200 707.310 C 970.443 706.861, 971.109 707.015, 970.586 707.860 C 970.188 708.505, 969.443 708.774, 968.931 708.457 C 968.419 708.141, 968 708.385, 968 709 C 968 709.615, 967.581 709.859, 967.069 709.543 C 966.557 709.226, 965.856 709.425, 965.510 709.984 C 965.165 710.543, 965.310 711, 965.834 711 C 967.115 711, 968.065 713.666, 967.402 715.396 C 967.022 716.384, 965.762 716.644, 963.082 716.284 C 959.350 715.784, 959.289 715.830, 958.661 719.638 C 958.173 722.590, 958.412 723.789, 959.671 724.727 C 961.164 725.839, 961.070 726.203, 958.659 728.613 C 957.197 730.076, 956 731.838, 956 732.529 C 956 733.221, 955.373 734.027, 954.606 734.321 C 953.839 734.615, 952.007 736.436, 950.534 738.367 C 948.362 741.214, 947.804 743.120, 947.582 748.452 C 947.352 753.943, 947.673 755.524, 949.527 758.037 C 954.380 764.614, 955.807 765.278, 963.701 764.627 C 968.013 764.272, 971.147 764.428, 971.510 765.017 C 971.845 765.558, 973.216 766, 974.559 766 C 977.248 766, 977.465 766.647, 976.038 770.399 C 975.387 772.112, 975.424 773.144, 976.152 773.594 C 976.743 773.959, 978.082 776.191, 979.126 778.553 C 980.691 782.090, 980.819 783.303, 979.853 785.423 C 978.620 788.129, 979.310 791.666, 982.791 800.500 C 984.959 806.001, 985.344 806.303, 989.113 805.475 C 992.959 804.630, 1001 796.888, 1001 794.029 C 1001 792.987, 1001.841 791.868, 1002.868 791.542 C 1006.183 790.490, 1008.064 787.389, 1008.424 782.381 C 1008.617 779.696, 1008.826 777.135, 1008.888 776.688 C 1008.949 776.242, 1012.150 772.843, 1016 769.135 C 1023.912 761.516, 1025.098 758.214, 1019.750 758.692 C 1016.951 758.943, 1015.979 758.350, 1012.750 754.423 C 1010.688 751.915, 1009 748.976, 1009 747.892 C 1009 746.808, 1008.100 744.156, 1007 742 C 1004.752 737.593, 1004.621 737, 1005.895 737 C 1006.958 737, 1015 752.434, 1015 754.473 C 1015 757.274, 1017.275 757.160, 1023.399 754.051 C 1027.031 752.208, 1030.333 749.705, 1031.305 748.061 C 1032.897 745.366, 1032.876 745.111, 1030.848 742.534 C 1029.412 740.708, 1028.488 740.211, 1027.999 741.001 C 1027.602 741.644, 1026.972 742.147, 1026.600 742.117 C 1025.367 742.019, 1020.740 735.927, 1021.399 735.268 C 1021.755 734.912, 1022.736 735.606, 1023.580 736.810 C 1024.428 738.022, 1026.178 739, 1027.498 739 C 1028.809 739, 1030.160 739.450, 1030.500 740 C 1030.840 740.550, 1032.655 741, 1034.533 741 C 1037.293 741, 1038.237 741.558, 1039.453 743.910 C 1040.281 745.510, 1041.405 746.972, 1041.952 747.160 C 1042.498 747.347, 1043.247 750.763, 1043.616 754.750 C 1043.985 758.737, 1044.673 762, 1045.144 762 C 1045.615 762, 1046.059 762.788, 1046.131 763.750 C 1046.203 764.712, 1046.600 763.025, 1047.013 760 C 1047.425 756.975, 1048.765 752.250, 1049.989 749.500 L 1052.214 744.500 1053.553 748.925 C 1054.907 753.397, 1054.467 766.406, 1052.993 765.496 C 1052.595 765.250, 1051.983 767.400, 1051.632 770.274 C 1051.281 773.148, 1050.745 776.625, 1050.442 778 C 1050.053 779.761, 1050.356 779.491, 1051.466 777.085 C 1053.486 772.709, 1056.143 760.040, 1055.320 758.709 C 1054.974 758.149, 1055.176 757.991, 1055.769 758.357 C 1057.393 759.361, 1057.732 743.900, 1056.273 735.355 C 1052.129 711.079, 1034.176 688.433, 1011.900 679.381 C 1005.319 676.707, 1003.101 676.321, 1007.250 678.572 M 947 682.014 C 942.875 684.192, 938.753 686.880, 937.840 687.987 C 936.927 689.094, 935.869 690, 935.489 690 C 934.089 690, 924.758 699.686, 920.478 705.583 C 915.894 711.898, 911.018 721.395, 911.022 724 C 911.023 724.825, 912.481 722.894, 914.262 719.709 C 916.043 716.523, 918.585 713.373, 919.911 712.709 C 921.237 712.044, 922.433 710.721, 922.569 709.770 C 922.859 707.749, 925.201 705.195, 927.139 704.786 C 928.851 704.424, 930.927 701.914, 930.968 700.154 C 930.986 699.414, 931.887 697.563, 932.970 696.041 C 934.054 694.520, 934.665 692.998, 934.327 692.661 C 933.990 692.323, 934.566 691.722, 935.607 691.324 C 936.648 690.927, 939.300 689.313, 941.500 687.738 C 943.700 686.162, 947.638 683.485, 950.250 681.787 C 954.316 679.146, 955.785 677.917, 954.750 678.026 C 954.612 678.041, 951.125 679.835, 947 682.014 M 988.696 691.220 C 987.704 692.258, 986.986 693.871, 987.100 694.804 C 987.372 697.029, 986.013 700.170, 984.062 701.824 C 982.707 702.973, 982.831 703.074, 985 702.588 C 986.375 702.280, 988.063 702.021, 988.750 702.014 C 989.438 702.006, 990 700.905, 990 699.566 C 990 697.679, 990.617 697.039, 992.750 696.716 L 995.500 696.300 992.719 696.150 C 989.522 695.978, 988.199 693.671, 990.031 691.463 C 991.887 689.227, 990.792 689.028, 988.696 691.220 M 974.679 716.703 C 973.677 716.962, 971.303 718.683, 969.404 720.527 C 967.505 722.372, 965.003 724.182, 963.843 724.550 C 962.251 725.055, 962.060 725.419, 963.064 726.040 C 963.795 726.491, 965.221 726.417, 966.234 725.875 C 967.780 725.047, 974.286 724.539, 978.656 724.903 C 979.294 724.957, 979.586 725.868, 979.307 726.933 C 978.908 728.458, 979.877 729.411, 983.901 731.450 C 988.225 733.641, 989 733.786, 989 732.403 C 989 731.103, 989.658 730.899, 992.250 731.394 C 1002.330 733.322, 1004.285 733.331, 1005.656 731.456 C 1006.395 730.445, 1007 728.832, 1007 727.873 C 1007 726.415, 1006.277 726.195, 1002.611 726.539 C 998.525 726.922, 998.137 726.745, 996.990 723.975 C 995.719 720.906, 994.576 720.259, 993.500 722 C 993.160 722.550, 993.455 723, 994.155 723 C 995.030 723, 994.907 723.521, 993.764 724.664 C 992.395 726.033, 991.828 726.102, 990.561 725.051 C 989.715 724.348, 989.249 723.405, 989.527 722.956 C 990.655 721.130, 988.141 721.186, 986.479 723.024 C 984.586 725.115, 982 725.679, 982 724 C 982 723.450, 982.788 722.998, 983.750 722.995 C 985.027 722.992, 984.471 722.045, 981.694 719.495 C 979.601 717.573, 977.576 716.052, 977.194 716.116 C 976.812 716.180, 975.680 716.444, 974.679 716.703 M 908.307 754.140 C 906.742 756.040, 910.066 771.215, 913.570 778.165 C 917.638 786.236, 927.889 800.002, 929.818 799.985 C 932.516 799.960, 934.121 798.479, 933.422 796.657 C 933.067 795.732, 933.330 794.307, 934.008 793.491 C 934.952 792.352, 934.980 790.979, 934.127 787.591 C 933.516 785.162, 933.297 781.766, 933.641 780.044 C 934.130 777.601, 933.760 776.374, 931.959 774.457 C 930.690 773.106, 929.091 772, 928.407 772 C 926.245 772, 921.018 768.572, 920.437 766.773 C 920.130 765.822, 918.332 763.192, 916.440 760.928 C 914.548 758.663, 913 756.403, 913 755.905 C 913 755.407, 912.362 755, 911.583 755 C 910.804 755, 910 754.501, 909.797 753.890 C 909.549 753.148, 909.056 753.231, 908.307 754.140 M 1013.382 787.848 C 1010.708 790.122, 1007 795.702, 1007 797.450 C 1007 797.753, 1007.900 798, 1009 798 C 1010.100 798, 1011.001 797.663, 1011.001 797.250 C 1011.002 796.837, 1012.140 795.178, 1013.529 793.562 C 1015.871 790.839, 1017.731 786.379, 1016.870 785.551 C 1016.667 785.355, 1015.097 786.389, 1013.382 787.848" stroke="none" fill="#fbfbfb" fill-rule="evenodd"/></svg>